Normalized EMG Linear Envelopes
nRows=119
nColumns=4

endheader
time	 med_gas_r	  soleus_r	 tib_ant_r	
3.14919	  0.077851	  0.055655	  0.023099	
3.22077	  0.087634	  0.057387	  0.021152	
3.29234	  0.091620	  0.058339	  0.020262	
3.36391	  0.090263	  0.057238	  0.020791	
3.43548	  0.087606	  0.054287	  0.022003	
3.50706	  0.085897	  0.052154	  0.022554	
3.57863	  0.085005	  0.052995	  0.021775	
3.6502	  0.085298	  0.055572	  0.020216	
3.72177	  0.088271	  0.056862	  0.018879	
3.79335	  0.093474	  0.056065	  0.018223	
3.86492	  0.097715	  0.055616	  0.018003	
3.93649	  0.098160	  0.057725	  0.017933	
4.00806	  0.094240	  0.060953	  0.018051	
4.07964	  0.087641	  0.061666	  0.018304	
4.15121	  0.081357	  0.058464	  0.018375	
4.22278	  0.077113	  0.054147	  0.018168	
4.29435	  0.074838	  0.053524	  0.018165	
4.36593	  0.074862	  0.059078	  0.019046	
4.4375	  0.077636	  0.068320	  0.020810	
4.50907	  0.081991	  0.076364	  0.022451	
4.58065	  0.085507	  0.081242	  0.022884	
4.65222	  0.086246	  0.084703	  0.021904	
4.72379	  0.084570	  0.086943	  0.019995	
4.79536	  0.082501	  0.084484	  0.017767	
4.86694	  0.079875	  0.075895	  0.015749	
4.93851	  0.073173	  0.064769	  0.014406	
5.01008	  0.061811	  0.055435	  0.014402	
5.08165	  0.058108	  0.053242	  0.017192	
5.15323	  0.090155	  0.071150	  0.025552	
5.2248	  0.186575	  0.124280	  0.042323	
5.29637	  0.343443	  0.207658	  0.065705	
5.36794	  0.508900	  0.290943	  0.087090	
5.43952	  0.624851	  0.348183	  0.098761	
5.51109	  0.679790	  0.378257	  0.101880	
5.58266	  0.702802	  0.391124	  0.102310	
5.65423	  0.727446	  0.395701	  0.102988	
5.72581	  0.771477	  0.400010	  0.104020	
5.79738	  0.825037	  0.405866	  0.105630	
5.86895	  0.856977	  0.408155	  0.108055	
5.94052	  0.849880	  0.405882	  0.110403	
6.0121	  0.820036	  0.405063	  0.111586	
6.08367	  0.790164	  0.407019	  0.112241	
6.15524	  0.761756	  0.404581	  0.113197	
6.22681	  0.729142	  0.394001	  0.112549	
6.29839	  0.698542	  0.380850	  0.108548	
6.36996	  0.684570	  0.374350	  0.104270	
6.44153	  0.699715	  0.381706	  0.105032	
6.5131	  0.742060	  0.403707	  0.112549	
6.58468	  0.793387	  0.434289	  0.124149	
6.65625	  0.834069	  0.463022	  0.135597	
6.72782	  0.850402	  0.476700	  0.142761	
6.7994	  0.832967	  0.467108	  0.142604	
6.87097	  0.785992	  0.442880	  0.135623	
6.94254	  0.733785	  0.428164	  0.126891	
7.01411	  0.704210	  0.440710	  0.121544	
7.08569	  0.707003	  0.474098	  0.119959	
7.15726	  0.730190	  0.506583	  0.120163	
7.22883	  0.754788	  0.517717	  0.122102	
7.3004	  0.772668	  0.500703	  0.126650	
7.37198	  0.790072	  0.471560	  0.133138	
7.44355	  0.817767	  0.457610	  0.139548	
7.51512	  0.859235	  0.473120	  0.143431	
7.58669	  0.905263	  0.509855	  0.142647	
7.65827	  0.941639	  0.546939	  0.137088	
7.72984	  0.956340	  0.567814	  0.128905	
7.80141	  0.937285	  0.566019	  0.120411	
7.87298	  0.881196	  0.542921	  0.113921	
7.94456	  0.807655	  0.508971	  0.111869	
8.01613	  0.745207	  0.474495	  0.113740	
8.0877	  0.702916	  0.438844	  0.115429	
8.15927	  0.668548	  0.400753	  0.113590	
8.23085	  0.629845	  0.366130	  0.108755	
8.30242	  0.589176	  0.339724	  0.103731	
8.37399	  0.560301	  0.322704	  0.100144	
8.44556	  0.553584	  0.313599	  0.097700	
8.51714	  0.565512	  0.307503	  0.096457	
8.58871	  0.582967	  0.304285	  0.097583	
8.66028	  0.596831	  0.312514	  0.101344	
8.73185	  0.609054	  0.336799	  0.106555	
8.80343	  0.626498	  0.369900	  0.112115	
8.875	  0.654766	  0.401432	  0.117201	
8.94657	  0.696391	  0.425610	  0.121350	
9.01815	  0.747102	  0.440748	  0.125818	
9.08972	  0.797683	  0.449130	  0.132430	
9.16129	  0.838124	  0.456396	  0.139835	
9.23286	  0.856143	  0.465292	  0.143738	
9.30444	  0.845822	  0.470887	  0.141929	
9.37601	  0.813855	  0.465960	  0.135962	
9.44758	  0.764559	  0.448125	  0.127909	
9.51915	  0.698044	  0.419544	  0.118763	
9.59073	  0.625064	  0.384112	  0.109359	
9.6623	  0.563163	  0.346534	  0.101038	
9.73387	  0.526782	  0.313584	  0.095191	
9.80544	  0.524536	  0.292033	  0.091988	
9.87702	  0.544352	  0.280621	  0.089926	
9.94859	  0.545933	  0.268567	  0.086923	
10.0202	  0.492150	  0.244006	  0.083347	
10.0917	  0.386696	  0.204137	  0.085592	
10.1633	  0.270931	  0.160999	  0.101025	
10.2349	  0.184984	  0.130889	  0.123118	
10.3065	  0.138049	  0.116103	  0.132579	
10.378	  0.118682	  0.107298	  0.121938	
10.4496	  0.116138	  0.098680	  0.104058	
10.5212	  0.121118	  0.090877	  0.093256	
10.5927	  0.124801	  0.085633	  0.092175	
10.6643	  0.125578	  0.083215	  0.094375	
10.7359	  0.126091	  0.082173	  0.092371	
10.8075	  0.124854	  0.080628	  0.083974	
10.879	  0.118516	  0.077358	  0.071184	
10.9506	  0.108704	  0.071551	  0.056261	
11.0222	  0.100326	  0.063780	  0.041360	
11.0937	  0.095056	  0.057290	  0.029294	
11.1653	  0.090786	  0.055605	  0.022106	
11.2369	  0.086594	  0.058449	  0.019377	
11.3085	  0.084370	  0.061981	  0.019090	
11.38	  0.085217	  0.062771	  0.019449	
11.4516	  0.087187	  0.060168	  0.019362	
11.5232	  0.087572	  0.055581	  0.018228	
11.5948	  0.085951	  0.050529	  0.016133	
